# xmcd
#
# Track frame offsets:
# 150
# 22082
# 44390
# 62348
# 80765
# 97139
# 116559
# 136110
# 153608
# 170234
# 194419
# 214862
# 234210
#
# Disc length: 3327 seconds
#
#
# Revision: 0
# Processed by: cddbd v1.5.1PL0 Copyright (c) Steve Scherf et al.
# Submitted via: FreeRIP 2.90 
#
DISCID=b70cfd0d
DTITLE=John Mayer - ROOM FOR SQUARES
DYEAR=2001
DGENRE=Blues
TTITLE0=No Such Thing
TTITLE1=Why Georgia
TTITLE2=My Stupid Mouth
TTITLE3=Your Body Is A Wonderland
TTITLE4=Neon
TTITLE5=City Love
TTITLE6=83
TTITLE7=3x5
TTITLE8=Love Song For No One
TTITLE9=Back To You
TTITLE10=Great Indoors
TTITLE11=Not Myself
TTITLE12=St. Patricks Day
EXTD=
EXTT0=
EXTT1=
EXTT2=
EXTT3=
EXTT4=
EXTT5=
EXTT6=
EXTT7=
EXTT8=
EXTT9=
EXTT10=
EXTT11=
EXTT12=
PLAYORDER=
